<svg xmlns="http://www.w3.org/2000/svg" width="1280" height="720" fill="none" aria-labelledby="title desc" role="img" viewBox="0 0 1280 720"><title id="title">PortBridge UI preview</title><desc id="desc">A stylized preview of the PortBridge macOS app showing SSH port forwarding controls.</desc><defs><linearGradient id="bg" x1="128" x2="1120" y1="40" y2="706" gradientUnits="userSpaceOnUse"><stop stop-color="#07111F"/><stop offset=".46" stop-color="#10233B"/><stop offset="1" stop-color="#1B3A55"/></linearGradient><radialGradient id="glowBlue" cx="0" cy="0" r="1" gradientTransform="translate(975 190) rotate(136) scale(570 316)" gradientUnits="userSpaceOnUse"><stop stop-color="#38BDF8" stop-opacity=".42"/><stop offset="1" stop-color="#38BDF8" stop-opacity="0"/></radialGradient><radialGradient id="glowGreen" cx="0" cy="0" r="1" gradientTransform="translate(250 610) rotate(-35) scale(475 292)" gradientUnits="userSpaceOnUse"><stop stop-color="#34D399" stop-opacity=".28"/><stop offset="1" stop-color="#34D399" stop-opacity="0"/></radialGradient><linearGradient id="window" x1="226" x2="1032" y1="111" y2="629" gradientUnits="userSpaceOnUse"><stop stop-color="#F8FAFC"/><stop offset="1" stop-color="#E8EEF6"/></linearGradient><filter id="shadow" width="966" height="643" x="158" y="62" color-interpolation-filters="sRGB" filterUnits="userSpaceOnUse"><feFlood flood-opacity="0" result="BackgroundImageFix"/><feColorMatrix in="SourceAlpha" result="hardAlpha" type="matrix" values="0 0 0 0 0 0 0 0 0 0 0 0 0 0 0 0 0 0 127 0"/><feOffset dy="28"/><feGaussianBlur stdDeviation="28"/><feComposite in2="hardAlpha" operator="out"/><feColorMatrix type="matrix" values="0 0 0 0 0.015 0 0 0 0 0.04 0 0 0 0 0.09 0 0 0 0.42 0"/><feBlend in2="BackgroundImageFix" mode="normal" result="effect1_dropShadow_1_1"/><feBlend in="SourceGraphic" in2="effect1_dropShadow_1_1" mode="normal" result="shape"/></filter><pattern id="grid" width="48" height="48" patternUnits="userSpaceOnUse"><path stroke="#fff" stroke-opacity=".055" d="M48 0H0V48"/></pattern><style>.ui{font-family:-apple-system,BlinkMacSystemFont,&quot;SF Pro Display&quot;,&quot;Segoe UI&quot;,sans-serif}.mono{font-family:&quot;SF Mono&quot;,ui-monospace,Menlo,Consolas,monospace}</style></defs><rect width="1280" height="720" fill="url(#bg)"/><rect width="1280" height="720" fill="url(#grid)"/><rect width="1280" height="720" fill="url(#glowBlue)"/><rect width="1280" height="720" fill="url(#glowGreen)"/><g class="ui"><text x="120" y="86" fill="#E2E8F0" font-size="52" font-weight="800" letter-spacing="-1.7">PortBridge</text><text x="123" y="122" fill="#94A3B8" font-size="20" font-weight="500">Click-to-toggle SSH local port forwarding for macOS.</text><g filter="url(#shadow)" transform="translate(0 34)"><rect width="870" height="548" x="205" y="110" fill="url(#window)" rx="28"/><rect width="869" height="547" x="205.5" y="110.5" stroke="#fff" stroke-opacity=".72" rx="27.5"/><rect width="870" height="58" x="205" y="110" fill="#EEF3F8" rx="28"/><path fill="#EEF3F8" d="M205 140C205 123.431 218.431 110 235 110H1045C1061.57 110 1075 123.431 1075 140V168H205V140Z"/><circle cx="239" cy="140" r="7" fill="#FF5F57"/><circle cx="263" cy="140" r="7" fill="#FFBD2E"/><circle cx="287" cy="140" r="7" fill="#28C840"/><text x="625" y="146" fill="#475569" font-size="15" font-weight="700" text-anchor="middle">PortBridge</text><rect width="822" height="52" x="229" y="189" fill="#fff" stroke="#E2E8F0" rx="14"/><circle cx="254" cy="215" r="8" fill="#CBD5E1"/><rect width="292" height="20" x="274" y="205" fill="#F1F5F9" rx="10"/><text x="289" y="219" fill="#64748B" font-size="13">포트 번호나 프로세스 이름으로 찾기</text><circle cx="1004" cy="215" r="14" fill="#F8FAFC" stroke="#CBD5E1"/><path stroke="#64748B" stroke-linecap="round" stroke-width="1.8" d="M999 215H1009M1004 210V220"/><text x="244" y="284" fill="#0EA5E9" font-size="16" font-weight="800">포워딩 중</text><rect width="822" height="64" x="229" y="302" fill="#ECFDF5" stroke="#BBF7D0" rx="18"/><circle cx="260" cy="334" r="7" fill="#22C55E"/><text x="286" y="328" fill="#0F172A" font-size="17" font-weight="750">dev-api</text><text x="286" y="350" fill="#64748B" class="mono" font-size="14">localhost:8080 → remote:8080</text><rect width="105" height="30" x="911" y="320" fill="#DCFCE7" rx="15"/><text x="963" y="340" fill="#15803D" font-size="13" font-weight="800" text-anchor="middle">ACTIVE</text><g><text x="244" y="415" fill="#334155" font-size="15" font-weight="800">모든 서버 · 3</text><rect width="822" height="70" x="229" y="435" fill="#fff" stroke="#E2E8F0" rx="18"/><rect width="28" height="28" x="252" y="458" fill="#E0F2FE" stroke="#7DD3FC" rx="8"/><text x="266" y="477" fill="#0284C7" font-size="14" font-weight="800" text-anchor="middle">S</text><text x="296" y="465" fill="#0F172A" font-size="17" font-weight="750">Staging API</text><text x="296" y="487" fill="#64748B" class="mono" font-size="13">deploy@staging.example.com</text><text x="891" y="477" fill="#64748B" class="mono" font-size="14">:80 · nginx</text></g><g><rect width="822" height="70" x="229" y="517" fill="#fff" stroke="#E2E8F0" rx="18"/><rect width="28" height="28" x="252" y="540" fill="#F3E8FF" stroke="#D8B4FE" rx="8"/><text x="266" y="559" fill="#9333EA" font-size="14" font-weight="800" text-anchor="middle">D</text><text x="296" y="547" fill="#0F172A" font-size="17" font-weight="750">Data Lab</text><text x="296" y="569" fill="#64748B" class="mono" font-size="13">ubuntu@lab.example.com:22</text><text x="851" y="559" fill="#64748B" class="mono" font-size="14">:5432 · postgres</text></g></g><g><rect width="230" height="78" x="774" y="78" fill="#0F172A" fill-opacity=".72" stroke="#38BDF8" stroke-opacity=".32" rx="22"/><text x="800" y="111" fill="#BAE6FD" font-size="14" font-weight="800">No daemon required</text><text x="800" y="135" fill="#CBD5E1" font-size="13">Uses your existing SSH config.</text></g><g><rect width="255" height="84" x="900" y="610" fill="#0F172A" fill-opacity=".74" stroke="#34D399" stroke-opacity=".28" rx="24"/><text x="928" y="646" fill="#BBF7D0" font-size="14" font-weight="800">Ad-hoc release</text><text x="928" y="670" fill="#CBD5E1" font-size="13">Open source. User-owned risk.</text></g></g></svg>