<svg width="1280" height="720" viewBox="0 0 1280 720" fill="none" xmlns="http://www.w3.org/2000/svg" role="img" aria-labelledby="title desc">
  <title id="title">PortBridge UI preview</title>
  <desc id="desc">A stylized preview of the PortBridge macOS app showing SSH port forwarding controls.</desc>
  <defs>
    <linearGradient id="bg" x1="128" y1="40" x2="1120" y2="706" gradientUnits="userSpaceOnUse">
      <stop stop-color="#07111F"/>
      <stop offset="0.46" stop-color="#10233B"/>
      <stop offset="1" stop-color="#1B3A55"/>
    </linearGradient>
    <radialGradient id="glowBlue" cx="0" cy="0" r="1" gradientUnits="userSpaceOnUse" gradientTransform="translate(975 190) rotate(136) scale(570 316)">
      <stop stop-color="#38BDF8" stop-opacity="0.42"/>
      <stop offset="1" stop-color="#38BDF8" stop-opacity="0"/>
    </radialGradient>
    <radialGradient id="glowGreen" cx="0" cy="0" r="1" gradientUnits="userSpaceOnUse" gradientTransform="translate(250 610) rotate(-35) scale(475 292)">
      <stop stop-color="#34D399" stop-opacity="0.28"/>
      <stop offset="1" stop-color="#34D399" stop-opacity="0"/>
    </radialGradient>
    <linearGradient id="window" x1="226" y1="111" x2="1032" y2="629" gradientUnits="userSpaceOnUse">
      <stop stop-color="#F8FAFC"/>
      <stop offset="1" stop-color="#E8EEF6"/>
    </linearGradient>
    <filter id="shadow" x="158" y="62" width="966" height="643" filterUnits="userSpaceOnUse" color-interpolation-filters="sRGB">
      <feFlood flood-opacity="0" result="BackgroundImageFix"/>
      <feColorMatrix in="SourceAlpha" type="matrix" values="0 0 0 0 0 0 0 0 0 0 0 0 0 0 0 0 0 0 127 0" result="hardAlpha"/>
      <feOffset dy="28"/>
      <feGaussianBlur stdDeviation="28"/>
      <feComposite in2="hardAlpha" operator="out"/>
      <feColorMatrix type="matrix" values="0 0 0 0 0.015 0 0 0 0 0.04 0 0 0 0 0.09 0 0 0 0.42 0"/>
      <feBlend mode="normal" in2="BackgroundImageFix" result="effect1_dropShadow_1_1"/>
      <feBlend mode="normal" in="SourceGraphic" in2="effect1_dropShadow_1_1" result="shape"/>
    </filter>
    <pattern id="grid" width="48" height="48" patternUnits="userSpaceOnUse">
      <path d="M48 0H0V48" stroke="white" stroke-opacity="0.055"/>
    </pattern>
    <style>
      .ui { font-family: -apple-system, BlinkMacSystemFont, "SF Pro Display", "Segoe UI", sans-serif; }
      .mono { font-family: "SF Mono", ui-monospace, Menlo, Consolas, monospace; }
    </style>
  </defs>

  <rect width="1280" height="720" fill="url(#bg)"/>
  <rect width="1280" height="720" fill="url(#grid)"/>
  <rect width="1280" height="720" fill="url(#glowBlue)"/>
  <rect width="1280" height="720" fill="url(#glowGreen)"/>

  <g class="ui">
    <text x="120" y="86" fill="#E2E8F0" font-size="52" font-weight="800" letter-spacing="-1.7">PortBridge</text>
    <text x="123" y="122" fill="#94A3B8" font-size="20" font-weight="500">Click-to-toggle SSH local port forwarding for macOS.</text>

    <g filter="url(#shadow)" transform="translate(0 34)">
      <rect x="205" y="110" width="870" height="548" rx="28" fill="url(#window)"/>
      <rect x="205.5" y="110.5" width="869" height="547" rx="27.5" stroke="white" stroke-opacity="0.72"/>

      <rect x="205" y="110" width="870" height="58" rx="28" fill="#EEF3F8"/>
      <path d="M205 140C205 123.431 218.431 110 235 110H1045C1061.57 110 1075 123.431 1075 140V168H205V140Z" fill="#EEF3F8"/>
      <circle cx="239" cy="140" r="7" fill="#FF5F57"/>
      <circle cx="263" cy="140" r="7" fill="#FFBD2E"/>
      <circle cx="287" cy="140" r="7" fill="#28C840"/>
      <text x="625" y="146" text-anchor="middle" fill="#475569" font-size="15" font-weight="700">PortBridge</text>

      <rect x="229" y="189" width="822" height="52" rx="14" fill="white" stroke="#E2E8F0"/>
      <circle cx="254" cy="215" r="8" fill="#CBD5E1"/>
      <rect x="274" y="205" width="292" height="20" rx="10" fill="#F1F5F9"/>
      <text x="289" y="219" fill="#64748B" font-size="13">포트 번호나 프로세스 이름으로 찾기</text>
      <circle cx="1004" cy="215" r="14" fill="#F8FAFC" stroke="#CBD5E1"/>
      <path d="M999 215H1009M1004 210V220" stroke="#64748B" stroke-width="1.8" stroke-linecap="round"/>

      <text x="244" y="284" fill="#0EA5E9" font-size="16" font-weight="800">포워딩 중</text>
      <rect x="229" y="302" width="822" height="64" rx="18" fill="#ECFDF5" stroke="#BBF7D0"/>
      <circle cx="260" cy="334" r="7" fill="#22C55E"/>
      <text x="286" y="328" fill="#0F172A" font-size="17" font-weight="750">dev-api</text>
      <text x="286" y="350" fill="#64748B" font-size="14" class="mono">localhost:8080 → remote:8080</text>
      <rect x="911" y="320" width="105" height="30" rx="15" fill="#DCFCE7"/>
      <text x="963" y="340" text-anchor="middle" fill="#15803D" font-size="13" font-weight="800">ACTIVE</text>

      <g>
        <text x="244" y="415" fill="#334155" font-size="15" font-weight="800">모든 서버 · 3</text>
        <rect x="229" y="435" width="822" height="70" rx="18" fill="white" stroke="#E2E8F0"/>
        <rect x="252" y="458" width="28" height="28" rx="8" fill="#E0F2FE" stroke="#7DD3FC"/>
        <text x="266" y="477" text-anchor="middle" fill="#0284C7" font-size="14" font-weight="800">S</text>
        <text x="296" y="465" fill="#0F172A" font-size="17" font-weight="750">Staging API</text>
        <text x="296" y="487" fill="#64748B" font-size="13" class="mono">deploy@staging.example.com</text>
        <text x="891" y="477" fill="#64748B" font-size="14" class="mono">:80 · nginx</text>
      </g>

      <g>
        <rect x="229" y="517" width="822" height="70" rx="18" fill="white" stroke="#E2E8F0"/>
        <rect x="252" y="540" width="28" height="28" rx="8" fill="#F3E8FF" stroke="#D8B4FE"/>
        <text x="266" y="559" text-anchor="middle" fill="#9333EA" font-size="14" font-weight="800">D</text>
        <text x="296" y="547" fill="#0F172A" font-size="17" font-weight="750">Data Lab</text>
        <text x="296" y="569" fill="#64748B" font-size="13" class="mono">ubuntu@lab.example.com:22</text>
        <text x="851" y="559" fill="#64748B" font-size="14" class="mono">:5432 · postgres</text>
      </g>
    </g>

    <g>
      <rect x="774" y="78" width="230" height="78" rx="22" fill="#0F172A" fill-opacity="0.72" stroke="#38BDF8" stroke-opacity="0.32"/>
      <text x="800" y="111" fill="#BAE6FD" font-size="14" font-weight="800">No daemon required</text>
      <text x="800" y="135" fill="#CBD5E1" font-size="13">Uses your existing SSH config.</text>
    </g>

    <g>
      <rect x="900" y="610" width="255" height="84" rx="24" fill="#0F172A" fill-opacity="0.74" stroke="#34D399" stroke-opacity="0.28"/>
      <text x="928" y="646" fill="#BBF7D0" font-size="14" font-weight="800">Ad-hoc release</text>
      <text x="928" y="670" fill="#CBD5E1" font-size="13">Open source. User-owned risk.</text>
    </g>
  </g>
</svg>
